<svg width="43" height="25" viewBox="0 0 43 25" fill="none" xmlns="http://www.w3.org/2000/svg">
<path d="M22.5621 21.6861C32.7382 22.164 41.2524 20.3882 42.1175 19.341C42.9826 18.2938 36.722 8.27712 23.6319 7.59435C13.1598 7.04814 6.9146 12.7244 5.05547 15.1527C7.49897 17.1712 14.4212 21.3038 22.5621 21.6861Z" fill="#FFF2EA"/>
<path d="M23.6315 7.59431C21.8758 7.50276 20.239 7.58644 18.7217 7.80006C16.9204 9.10415 15.6162 11.0952 15.2373 13.4646C14.7767 16.3448 15.7913 19.118 17.72 21.022C19.2637 21.3672 20.8872 21.6072 22.5625 21.6859C24.8635 21.794 27.0794 21.7858 29.1412 21.6979C30.822 20.3939 32.0316 18.4749 32.3941 16.2085C32.8456 13.3849 31.8822 10.6615 30.0269 8.76169C28.117 8.14209 25.9845 7.71703 23.6315 7.59431Z" fill="#FFF2EA"/>
<path d="M23.6315 7.59431C21.8758 7.50276 20.239 7.58644 18.7217 7.80006C16.9204 9.10415 15.6162 11.0952 15.2373 13.4646C14.7767 16.3448 15.7913 19.118 17.72 21.022C19.2637 21.3672 20.8872 21.6072 22.5625 21.6859C24.8635 21.794 27.0794 21.7858 29.1412 21.6979C30.822 20.3939 32.0316 18.4749 32.3941 16.2085C32.8456 13.3849 31.8822 10.6615 30.0269 8.76169C28.117 8.14209 25.9845 7.71703 23.6315 7.59431Z" fill="url(#paint0_radial_197_156)"/>
<path d="M22.198 7.7313C16.6111 8.00832 11.7243 10.0318 8.37004 11.9943C6.78236 13.1744 5.67555 14.3437 5.05598 15.1529C5.53047 15.5448 6.1748 16.0148 6.96307 16.5232C9.44583 14.7834 14.6584 12.3087 22.5623 11.5558C30.6894 10.7818 38.4071 15.835 41.5943 18.9082L41.9975 18.2489C41.4445 16.8723 39.7441 14.51 36.9167 12.3555C32.7839 9.7885 27.4175 7.47261 22.198 7.7313Z" fill="#DFE0E4"/>
<path d="M40.8356 16.2703C40.7661 18.1452 40.3352 19.2096 39.1153 20.4758C40.7727 20.088 41.84 19.6776 42.118 19.3413C42.3895 19.0126 41.9588 17.8002 40.8356 16.2703Z" fill="#DE8D4E"/>
<path d="M22.198 7.73106C20.8081 7.79997 19.4614 7.97801 18.171 8.2353C16.8073 9.40028 15.7979 10.9899 15.3629 12.8436C17.4432 12.2773 19.8437 11.8145 22.5623 11.5555C25.9952 11.2286 29.3544 11.9428 32.3306 13.107C32.0282 11.6197 31.3415 10.2502 30.3622 9.12627C27.7341 8.17418 24.946 7.59485 22.198 7.73106Z" fill="#230801"/>
<circle cx="23.8449" cy="14.8382" r="3.84188" transform="rotate(174.559 23.8449 14.8382)" fill="#050308"/>
<circle cx="26.4321" cy="11.6693" r="1.92094" transform="rotate(174.559 26.4321 11.6693)" fill="#FFF2EA"/>
<path d="M23.2168 1.85509C16.655 1.74583 9.85414 3.82785 5.08032 8.35317C4.55378 8.85809 4.02953 9.40924 3.59854 9.98541C4.08042 9.45241 4.64499 8.95146 5.20578 8.49621C10.2864 4.43254 16.8283 2.75597 23.2051 2.85485C23.3144 2.85621 23.4231 2.85845 23.5313 2.86105C30.0054 2.94013 36.4473 5.73562 40.6682 10.8325C41.135 11.3963 41.5798 11.982 41.9581 12.603C41.6379 11.9493 41.2426 11.3229 40.819 10.7171C37.0144 5.22608 30.2877 1.91976 23.5558 1.86106C23.4434 1.85836 23.3303 1.85636 23.2168 1.85509Z" fill="#BC6B33"/>
<path d="M21.8106 8.73266C32.8063 7.68529 41.1179 17.989 41.9808 17.9068C42.8438 17.8246 35.8796 3.49808 20.1032 5.00084C10.1593 5.94803 2.56994 10.9264 0.710804 13.3547C-0.0859798 14.3955 5.59429 15.7446 6.48965 15.0161C8.72822 13.1949 10.815 9.78003 21.8106 8.73266Z" fill="#090806"/>
<defs>
<radialGradient id="paint0_radial_197_156" cx="0" cy="0" r="1" gradientUnits="userSpaceOnUse" gradientTransform="translate(23.8075 14.7485) rotate(84.5588) scale(7.42395 8.68927)">
<stop offset="0.721154" stop-color="#512407"/>
<stop offset="0.9999" stop-color="#080000"/>
</radialGradient>
</defs>
</svg>
